<?xml version="1.0" encoding="utf-8"?>
<!-- Generator: Adobe Illustrator 16.0.0, SVG Export Plug-In . SVG Version: 6.00 Build 0)  -->
<!DOCTYPE svg PUBLIC "-//W3C//DTD SVG 1.1//EN" "http://www.w3.org/Graphics/SVG/1.1/DTD/svg11.dtd">
<svg version="1.1" id="Layer_1" xmlns="http://www.w3.org/2000/svg" xmlns:xlink="http://www.w3.org/1999/xlink" x="0px" y="0px"
	 width="25.09px" height="18.73px" viewBox="46.448 9.064 25.09 18.73" enable-background="new 46.448 9.064 25.09 18.73"
	 xml:space="preserve">
<path fill="#D1E0E5" d="M69.328,14.361h-3.086v-3.086c0-1.24-0.824-2.211-1.877-2.211h-4.385c-1.052,0-1.876,0.971-1.876,2.211v1.21
	c-1.45,0.294-2.771,0.91-3.47,1.276c-0.717-0.376-2.087-1.017-3.581-1.301c-0.475-0.09-0.967-0.136-1.461-0.136
	c-1.406,0-2.395,0.361-2.502,0.402l-0.644,0.246v12.232l1.473-0.79c0.014-0.007,1.403-0.745,3.134-1.072
	c0.263-0.05,0.539-0.075,0.823-0.075c1.269,0,2.303,0.501,2.31,0.504l0.448,0.226l0.448-0.226c0.011-0.005,1.04-0.504,2.309-0.504
	c0.246,0,0.481,0.027,0.713,0.065v2.252c0,1.238,0.824,2.209,1.876,2.209h4.385c1.053,0,1.877-0.971,1.877-2.209v-3.088h3.086
	c1.238,0,2.209-0.824,2.209-1.877v-4.383C71.537,15.185,70.567,14.361,69.328,14.361z"/>
<path fill="none" d="M88.803,12.727l0.643,0.246v12.228l-1.472-0.784c-0.011-0.006-0.839-0.44-1.994-0.79v1.959
	c0,0.52,0.287,0.959,0.626,0.959h4.385c0.34,0,0.627-0.439,0.627-0.959v-4.338h4.336c0.52,0,0.959-0.287,0.959-0.627v-4.383
	c0-0.34-0.439-0.627-0.959-0.627h-4.336v-4.336c0-0.521-0.287-0.961-0.627-0.961h-4.385c-0.339,0-0.626,0.44-0.626,0.961v1.064
	c0.107-0.004,0.214-0.015,0.321-0.015C87.707,12.325,88.695,12.686,88.803,12.727z"/>
<path fill="#0F6888" d="M61.909,13.428c-0.037-0.015-0.94-0.354-2.233-0.354c-0.447,0-0.892,0.041-1.321,0.122
	c-1.721,0.327-3.269,1.16-3.72,1.419c-0.452-0.259-2-1.092-3.721-1.418c-0.43-0.082-0.874-0.123-1.321-0.123
	c-1.294,0-2.197,0.339-2.234,0.354l-0.161,0.062v10.463l0.368-0.197c0.015-0.009,1.506-0.801,3.349-1.148
	c0.309-0.059,0.632-0.089,0.963-0.089c1.459,0,2.634,0.578,2.646,0.584l0.112,0.056l0.112-0.056c0.012-0.006,1.18-0.584,2.645-0.584
	c0.331,0,0.654,0.03,0.963,0.089c1.839,0.347,3.333,1.14,3.348,1.148l0.368,0.197V13.49L61.909,13.428z M50.821,22.115
	c-1.382,0.262-2.554,0.752-3.123,1.018v-9.29c0.302-0.091,1.003-0.268,1.896-0.268c0.416,0,0.829,0.038,1.228,0.114
	c1.638,0.311,3.149,1.125,3.564,1.361v7.45c-0.484-0.189-1.409-0.482-2.508-0.482C51.515,22.018,51.159,22.051,50.821,22.115z
	 M61.571,23.132c-0.569-0.266-1.74-0.756-3.122-1.018c-0.339-0.063-0.694-0.097-1.057-0.097c-1.099,0-2.022,0.293-2.507,0.482v-7.45
	c0.415-0.236,1.926-1.051,3.563-1.362c0.398-0.075,0.812-0.113,1.228-0.113c0.893,0,1.593,0.177,1.895,0.268V23.132z"/>
<path fill="#0F6888" d="M69.328,15.111h-3.836v-3.836c0-0.806-0.506-1.461-1.127-1.461h-4.385c-0.632,0-1.126,0.642-1.126,1.461
	v1.096c0.166-0.018,0.333-0.024,0.5-0.031v-1.064c0-0.521,0.287-0.961,0.626-0.961h4.385c0.34,0,0.627,0.44,0.627,0.961v4.336h4.336
	c0.52,0,0.959,0.287,0.959,0.627v4.383c0,0.34-0.439,0.627-0.959,0.627h-4.336v4.338c0,0.52-0.287,0.959-0.627,0.959h-4.385
	c-0.339,0-0.626-0.439-0.626-0.959v-1.959c-0.161-0.049-0.327-0.097-0.5-0.141v2.1c0,0.805,0.505,1.459,1.126,1.459h4.385
	c0.621,0,1.127-0.654,1.127-1.459v-3.838h3.836c0.818,0,1.459-0.495,1.459-1.127v-4.383C70.787,15.606,70.147,15.111,69.328,15.111z
	"/>
</svg>
