<?xml version="1.0" encoding="utf-8"?>
<!-- Generator: Adobe Illustrator 16.0.0, SVG Export Plug-In . SVG Version: 6.00 Build 0)  -->
<!DOCTYPE svg PUBLIC "-//W3C//DTD SVG 1.1//EN" "http://www.w3.org/Graphics/SVG/1.1/DTD/svg11.dtd">
<svg version="1.1" id="Layer_1" xmlns="http://www.w3.org/2000/svg" xmlns:xlink="http://www.w3.org/1999/xlink" x="0px" y="0px"
	 width="35.094px" height="15.046px" viewBox="0 0 35.094 15.046" enable-background="new 0 0 35.094 15.046" xml:space="preserve">
<polygon fill="#CFECF7" points="13.193,6.032 8.088,6.032 8.088,0.928 5.104,0.928 5.104,6.032 0,6.032 0,9.016 5.104,9.016 
	5.104,14.118 8.088,14.118 8.088,9.016 13.193,9.016 "/>
<path fill="#CFECF7" d="M19.911,0.174c-2.317-0.53-4.168,0.323-4.168,0.323v14.549c0,0,1.851-1.2,4.168-1.73
	c2.42-0.556,4.593,0.764,4.593,0.764V2.331C24.504,2.331,22.331,0.729,19.911,0.174z"/>
<path fill="#CFECF7" d="M30.924,0.174c2.319-0.53,4.17,0.323,4.17,0.323v14.549c0,0-1.851-1.2-4.17-1.73
	c-2.419-0.556-4.591,0.764-4.591,0.764V2.331C26.333,2.331,28.505,0.729,30.924,0.174z"/>
</svg>
