<?xml version="1.0" encoding="utf-8"?>
<!-- Generator: Adobe Illustrator 16.0.0, SVG Export Plug-In . SVG Version: 6.00 Build 0)  -->
<!DOCTYPE svg PUBLIC "-//W3C//DTD SVG 1.1//EN" "http://www.w3.org/Graphics/SVG/1.1/DTD/svg11.dtd">
<svg version="1.1" id="Layer_1" xmlns="http://www.w3.org/2000/svg" xmlns:xlink="http://www.w3.org/1999/xlink" x="0px" y="0px"
	 width="24.132px" height="20.622px" viewBox="47.633 8.118 24.132 20.622" enable-background="new 47.633 8.118 24.132 20.622"
	 xml:space="preserve">
<path fill="#D1E0E5" d="M70.968,16.898L57.79,8.46c-0.255-0.159-0.608-0.343-1.078-0.343c-1.034,0-1.875,0.841-1.875,1.875v2.023
	c-0.235-0.025-0.473-0.039-0.71-0.039c-3.581,0-6.494,2.913-6.494,6.494s2.913,6.494,6.494,6.494c0.237,0,0.475-0.013,0.71-0.039
	v1.938c0,1.034,0.841,1.876,1.875,1.876c0.314,0,0.586-0.065,0.931-0.25l13.402-8.584c0.457-0.359,0.72-0.897,0.72-1.478
	S71.503,17.311,70.968,16.898z"/>
<g>
	<path fill="#0F6888" d="M70.564,17.529L57.392,9.096c-0.181-0.113-0.402-0.229-0.68-0.229c-0.62,0-1.125,0.505-1.125,1.125v1.882
		h0.5V9.993c0-0.486,0.543-0.786,1.037-0.474l13.15,8.417c0.152,0.12,0.24,0.299,0.24,0.492s-0.088,0.373-0.222,0.479l-13.305,8.519
		c-0.09,0.047-0.162,0.063-0.276,0.063c-0.345,0-0.625-0.281-0.625-0.626V25.07h-0.5v1.794c0,0.621,0.505,1.126,1.125,1.126
		c0.194,0,0.346-0.036,0.526-0.131l13.344-8.544c0.275-0.216,0.433-0.539,0.433-0.887S70.858,17.758,70.564,17.529z"/>
	<path fill="#0F6888" d="M59.871,18.471c0-3.167-2.577-5.744-5.744-5.744s-5.744,2.577-5.744,5.744s2.577,5.744,5.744,5.744
		S59.871,21.638,59.871,18.471z M54.127,23.715c-2.892,0-5.244-2.353-5.244-5.244s2.353-5.244,5.244-5.244s5.244,2.353,5.244,5.244
		S57.019,23.715,54.127,23.715z"/>
	<path fill="#0F6888" d="M56.116,16.719h0.5c0-0.951-0.985-1.728-2.239-1.822v-0.983h-0.5v0.983
		c-1.254,0.095-2.239,0.871-2.239,1.822c0,0.952,0.985,1.729,2.239,1.823v3.002c-0.978-0.094-1.739-0.719-1.739-1.482h-0.5
		c0,1.035,0.985,1.879,2.239,1.981v0.986h0.5v-0.986c1.254-0.103,2.239-0.946,2.239-1.981s-0.985-1.878-2.239-1.98v-2.687
		C55.355,15.479,56.116,16.038,56.116,16.719z M53.877,18.044c-0.978-0.084-1.739-0.643-1.739-1.325c0-0.682,0.762-1.24,1.739-1.324
		V18.044z M56.116,20.062c0,0.764-0.762,1.389-1.739,1.482V18.58C55.355,18.674,56.116,19.298,56.116,20.062z"/>
</g>
</svg>
